<?xml version="1.0" encoding="UTF-8" standalone="no"?>
<svg xmlns="http://www.w3.org/2000/svg" version="1.1"
    xmlns:xlink="http://www.w3.org/1999/xlink"
    xmlns:svgjs="http://svgjs.dev/svgjs" width="1000" height="1000" viewBox="0 0 1000 1000">
    <rect width="1000" height="1000" fill="#000000"></rect>
    <g transform="matrix(0.7,0,0,0.7,149.69437067786106,198.19502653563563)">
        <svg viewBox="0 0 286 247" data-background-color="#ffffff" preserveAspectRatio="xMidYMid meet" height="863" width="1000"
            xmlns="http://www.w3.org/2000/svg"
            xmlns:xlink="http://www.w3.org/1999/xlink">
            <g id="tight-bounds" transform="matrix(1,0,0,1,0.12497702311699754,-0.09997365579206985)">
                <svg viewBox="0 0 285.7501515681234 247.2" height="247.2" width="285.7501515681234">
                    <g>
                        <svg viewBox="0 0 285.7501515681234 247.2" height="247.2" width="285.7501515681234">
                            <g>
                                <svg viewBox="0 0 285.7501515681234 247.2" height="247.2" width="285.7501515681234">
                                    <g>
                                        <svg viewBox="0 0 285.7501515681234 247.2" height="247.2" width="285.7501515681234" id="textblock">
                                            <g>
                                                <svg viewBox="0 0 285.7501515681234 247.2" height="247.2" width="285.7501515681234">
                                                    <path d="M285.081 53.02C283.738 27.36 279.909 20.227 279.909 20.227 268.155-6.202 253.485-0.506 240.307 3.292 217.039 3.446 193.866 9.091 170.653 12.119 121.929 12.581 72.788 4.986 24.306 23.717 19.752 29.464-4.725 24.846 0.81 56.304 2.261 69.39 7.554 83.913 7.393 95.922 8.118 98.026 9.126 93.202 9.555 96.23 11.06 104.39 13.518 100.541 15.533 105.365 12.726 118.246 14.741 128.971 16.662 140.21 13.277 143.135 8.937 141.749 6.99 151.449 6.788 158.479 5.7 157.145 4.504 156.837 3.631 156.632 1.871 157.402 2.167 159.608 3.174 167.152-1.151 171.514 1.562 178.904-0.305 186.91 2.852 193.838 2.422 202.511 2.368 204.255 2.664 205.744 3.134 206.154 5.216 208.361 2.18 212.672 2.503 217.342 23.862 249.262 47.035 227.195 68.919 241.872 74.602 231.608 70.33 245.516 72.6 243.36 74.373 240.846 75.663 251.263 77.664 245.362 77.973 243.668 77.503 239.665 78.605 240.435 79.182 240.846 79.693 240.743 79.773 238.382 79.894 234.841 78.833 237.048 78.551 235.201 81.6 225.861 80.848 248.081 83.71 247.158 83.575 244.438 82.742 240.538 84.448 241.051 86.141 237.151 86.195 233.918 87.699 242.693 87.753 244.592 88.022 245.926 88.452 246.85 93.153 237.305 97.828 250.237 102.759 245.926 105.781 241.205 108.683 248.492 111.746 246.696 112.82 245.259 113.909 242.693 114.943 247.004 127.611 247.928 141.112 244.079 153.122 247.158 185.215 241.41 219.511 249.518 253.351 241.923 261.33 238.998 269.619 234.841 277.397 231.506 277.397 231.506 283.697 222.371 283.697 181.316S285.041 145.393 285.242 112.703C285.444 80.013 286.384 78.679 285.041 53.02Z" opacity="1" fill="#8d021f" data-fill-palette-color="tertiary"></path>
                                                    <g transform="matrix(1,0,0,1,55.76832,26.230666666666668)">
                                                        <svg width="174.21351156812338" viewBox="0 -37.9900016784668 33.97999954223633 37.9900016784668" height="194.73866666666666" data-palette-color="#ffffff">
                                                            <path d="M33.98-37.84L33.98-37.84Q32.03-28.32 29.96-18.99 27.88-9.67 25.68-0.24L25.68-0.24 10.06 0Q8.84-5.27 7.59-10.52 6.35-15.77 4.79-21L4.79-21Q3.66-24.95 2.47-28.81 1.27-32.67 0-36.57L0-36.57Q1.71-36.38 3.44-36.23 5.18-36.08 6.88-36.08L6.88-36.08Q7.28-36.08 7.62-36.08 7.96-36.08 8.35-36.18L8.35-36.18Q10.3-30.03 12.4-24.1 14.5-18.16 16.7-12.11L16.7-12.11Q18.16-15.63 19.56-19.17 20.95-22.71 22.36-26.27L22.36-26.27Q22.46-26.51 22.8-27.49 23.14-28.47 23.61-29.76 24.07-31.05 24.58-32.5 25.1-33.94 25.51-35.16 25.93-36.38 26.2-37.18 26.46-37.99 26.46-37.99L26.46-37.99Q27-37.89 27.51-37.89 28.03-37.89 28.56-37.89L28.56-37.89Q29.98-37.84 31.3-37.84 32.62-37.84 33.98-37.84Z" opacity="1" transform="matrix(1,0,0,1,0,0)" fill="#ffffff" class="undefined-text-0" data-fill-palette-color="quaternary" id="text-0"></path>
                                                        </svg>
                                                    </g>
                                                </svg>
                                            </g>
                                        </svg>
                                    </g>
                                </svg>
                            </g>
                            <g></g>
                        </svg>
                    </g>
                    <defs></defs>
                </svg>
                <rect width="285.7501515681234" height="247.2" fill="none" stroke="none" visibility="hidden"></rect>
            </g>
        </svg>
    </g>
</svg>