<?xml version="1.0" encoding="UTF-8" standalone="no"?>
<svg xmlns="http://www.w3.org/2000/svg" version="1.1"
    xmlns:xlink="http://www.w3.org/1999/xlink"
    xmlns:svgjs="http://svgjs.dev/svgjs" width="2000" height="2250" viewBox="0 0 2000 2250">
    <g transform="matrix(1,0,0,1,3.410605131648481e-13,0)">
        <svg viewBox="0 0 320 360" data-background-color="#ffffff" preserveAspectRatio="xMidYMid meet" height="2250" width="2000"
            xmlns="http://www.w3.org/2000/svg"
            xmlns:xlink="http://www.w3.org/1999/xlink">
            <g id="tight-bounds" transform="matrix(1,0,0,1,0,0)">
                <svg viewBox="0 0 320 360" height="360" width="320">
                    <g>
                        <svg></svg>
                    </g>
                    <g>
                        <svg viewBox="0 0 320 360" height="360" width="320">
                            <g>
                                <path xmlns="http://www.w3.org/2000/svg" d="M20.961 227.22l3.726 4.658-1.863-6.056c-0.466-2.795-3.726 0.466-1.863 1.398M25.153 224.425c1.397 2.329 2.795 4.658 2.795 6.987 0 3.261 2.795 4.658 5.123 5.589-3.261-3.726-5.124-13.974-7.918-12.576M204.017 26.929c7.918 0 15.371-0.932 23.756 0.931 20.495 5.124 37.729 15.371 49.374 29.811l32.606 52.169c1.397 13.042 4.192 27.482 3.726 43.319 3.261 0 2.795-4.658 6.521-5.59-3.726 9.316-5.59 20.961-6.521 34.469-2.329-7.453 0-18.632 0.466-24.687-3.261 5.124-5.124 1.397-5.124-0.932 0.466-3.726-1.397-3.261-2.795-4.658-5.124-4.658-8.384-9.782-12.11-17.7 2.329-6.055 2.795-14.905-4.658-19.563-2.329-1.397-5.124-3.726-6.521-7.453-1.863-5.124-5.124-11.179-4.193-19.097 0.466-2.329-6.987 5.124-11.179 1.863-18.166-12.576-36.332-27.016-58.224-39.127-11.645 0-20.029-4.192-24.221-9.316-3.726-4.658-0.932-10.713 4.658-11.179 3.261 0 6.987-0.932 9.782 0.932 0.466-1.863 2.329-4.192 4.657-4.192M157.904 16.215l0.932 0.466c4.658 0.932 6.987 7.453 12.11 5.124 0 3.261 0.466 6.521-0.466 8.85-1.397 3.726-5.59 3.726-8.85 3.726-31.208-1.863-49.374 11.179-68.471 22.358-5.124 3.261-10.713 5.59-14.906 9.782-20.029 18.632-41.921 35.866-47.045 70.335l-4.192 38.195c-0.466 4.192-5.124 8.384-4.192 13.508l3.26 22.824c-3.261-3.261-5.124 0.932-4.192 2.795 0.466 1.397 2.329 6.055 5.124 1.863 3.726 6.987 7.453 20.495 12.576 26.55 15.837 18.632 36.332 35.4 53.101 52.169 4.192-0.932 7.453-0.932 8.384-3.727 1.397 2.795-1.397 5.59-3.726 6.056 7.453 4.658 15.837 8.85 27.016 9.781 14.44 0.932 27.948 3.261 40.524 6.522 6.521-1.863 13.042-2.795 20.029-3.261 2.329 0 3.726-3.726 6.521-4.658l0.466-4.658c2.795 4.192 2.329-1.397 0.466-4.192 3.261 2.795 4.192 5.124 5.589 6.987 0-1.397 3.726-6.521 3.727-0.466l0.931-6.055c1.397-0.932 1.863 5.124 3.261 0.931 1.397-4.192 4.192-0.932 6.987-2.329-0.932 1.863-0.466 5.59 2.794 3.261l3.727-3.261c2.329 5.59 6.055 3.261 7.918 2.329 20.495-13.042 40.99-28.413 60.553-43.784l-0.466 6.055 2.329-7.453c2.329 2.329 4.192 0.466 5.124-0.931 2.795-4.658 6.521-9.316 12.577-13.508-7.453 20.029-16.303 35.866-27.482 48.908l-4.658 5.59c0 3.261-0.932 7.453-4.658 7.918-1.863 0.466-5.59-0.932-8.384 1.863-1.397 1.863 3.261 5.59-0.466 2.795-3.261-2.329-6.521 0-10.248 0.932-2.795 0.932 1.863 3.726 2.795 5.589 0.932 1.863 1.863 3.726 1.398 6.056l-5.124-5.59c-6.055 3.261-9.782 9.316-14.906 13.974-2.329 1.863-1.397 5.124-1.397 7.918-3.261 0-6.987-0.932-8.85 0.932-1.397 1.863-0.932 4.658-0.932 7.453-4.658-0.466-5.124-7.453-9.315-6.056-4.192 0.932-8.85 1.397-12.577 3.727 2.795 5.59-4.658 2.329-3.726 3.26-6.987-4.192-13.042-7.453-20.495-4.658-15.837-5.124-35.4-2.795-49.84-0.931 0-2.329 0.466-4.658-0.466-5.124-0.932 2.329-3.726 1.397-3.26 1.397-8.85-6.055-17.7-9.782-27.016-14.905-8.384 0.932-16.303-3.261-18.632-5.59-6.521-6.055-13.974-2.795-20.029-4.192-13.042-3.261-17.7-16.769-19.098-26.084-0.932-4.658-4.658-6.521-6.055-6.056-6.055-19.563-15.371-37.263-22.824-55.429-1.863-4.658-1.397-9.316-1.397-14.44 2.329 0.932 4.658 0.466 4.192-2.794-2.329-15.371-7.918-27.016-13.974-38.195 3.261-15.837 3.726-34.469 11.179-48.443 6.521-12.576 18.632-19.098 27.016-29.811 2.795-3.726 2.795-8.85 5.59-12.11 9.316-9.316 18.632-19.098 28.879-27.482 4.658-3.726 10.247 0 17.234-1.397 2.329-8.384 11.645-15.837 20.495-13.508 3.726 0.932 11.179-8.85 13.508-9.782 3.726-1.397 1.863 3.726 1.863 6.987 8.85-6.987 20.961-10.713 32.14-14.906" fill="#c10000" fill-rule="nonzero" stroke="none" stroke-width="1" stroke-linecap="butt" stroke-linejoin="miter" stroke-miterlimit="10" stroke-dasharray="" stroke-dashoffset="0" font-family="none" font-weight="none" font-size="none" text-anchor="none" style="mix-blend-mode: normal" data-fill-palette-color="tertiary"></path>
                            </g>
                            <g transform="matrix(1,0,0,1,64,129.40782122905028)">
                                <svg viewBox="0 0 192 101.18435754189943" height="101.18435754189943" width="192">
                                    <g>
                                        <svg viewBox="0 0 192 101.18435754189943" height="101.18435754189943" width="192">
                                            <g>
                                                <svg viewBox="0 0 192 101.18435754189943" height="101.18435754189943" width="192">
                                                    <g>
                                                        <svg viewBox="0 0 192 101.18435754189943" height="101.18435754189943" width="192">
                                                            <g>
                                                                <svg viewBox="0 0 192 101.18435754189943" height="101.18435754189943" width="192" id="textblock">
                                                                    <g>
                                                                        <svg viewBox="0 0 192 101.18435754189943" height="101.18435754189943" width="192">
                                                                            <g transform="matrix(1,0,0,1,0,0)">
                                                                                <svg width="192" viewBox="1.5 -36.5 80.55000305175781 42.45000076293945" height="101.18435754189943" data-palette-color="#c10000">
                                                                                    <path d="M24.05 5.95L11.05 5.95Q9.9 5.95 9.2 5.53 8.5 5.1 8.05 4L8.05 4 3.15-8.25Q2.7-9.4 2.38-10.23 2.05-11.05 1.85-11.83 1.65-12.6 1.58-13.48 1.5-14.35 1.5-15.55L1.5-15.55 1.5-28.75Q1.5-29.4 1.68-29.85 1.85-30.3 2.2-30.6L2.2-30.6 8.65-36.05Q8.9-36.25 9.33-36.38 9.75-36.5 10.25-36.5L10.25-36.5 18.2-36.5Q19.4-36.5 20.03-35.93 20.65-35.35 20.65-34.2L20.65-34.2 20.65-20.4Q20.65-19.9 20.75-19.45 20.85-19 21-18.5L21-18.5 21.15-18.15 21.15-28.75Q21.15-29.4 21.33-29.85 21.5-30.3 21.85-30.6L21.85-30.6 28.3-36.05Q28.55-36.25 28.98-36.38 29.4-36.5 29.9-36.5L29.9-36.5 37.75-36.5Q39-36.5 39.53-35.95 40.05-35.4 40.05-34.2L40.05-34.2 40.05-21Q40.05-19.8 39.98-18.93 39.9-18.05 39.7-17.28 39.5-16.5 39.18-15.68 38.85-14.85 38.4-13.7L38.4-13.7 33.5-1.45Q33.35-1 33.1-0.65 32.85-0.3 32.6-0.1L32.6-0.1 26.15 5.25Q25.75 5.6 25.23 5.78 24.7 5.95 24.05 5.95L24.05 5.95ZM17.5 0L30.5 0Q31.45 0 32.08-0.35 32.7-0.7 33.05-1.65L33.05-1.65 37.95-13.9Q38.4-15 38.7-15.83 39-16.65 39.2-17.4 39.4-18.15 39.48-18.98 39.55-19.8 39.55-21L39.55-21 39.55-34.2Q39.55-35.15 39.13-35.58 38.7-36 37.75-36L37.75-36 29.9-36Q28.95-36 28.53-35.58 28.1-35.15 28.1-34.2L28.1-34.2 28.1-20.45Q28.1-19.95 28-19.45 27.9-18.95 27.7-18.4L27.7-18.4 25.35-11.35Q25.2-10.85 25-10.68 24.8-10.5 24.4-10.5L24.4-10.5 23.85-10.5Q23.45-10.5 23.25-10.68 23.05-10.85 22.9-11.35L22.9-11.35 20.55-18.35Q20.35-18.9 20.25-19.4 20.15-19.9 20.15-20.4L20.15-20.4 20.15-34.2Q20.15-35.15 19.65-35.58 19.15-36 18.2-36L18.2-36 10.25-36Q9.3-36 8.88-35.58 8.45-35.15 8.45-34.2L8.45-34.2 8.45-21Q8.45-19.8 8.53-18.98 8.6-18.15 8.8-17.4 9-16.65 9.3-15.83 9.6-15 10.05-13.9L10.05-13.9 14.95-1.65Q15.3-0.7 15.93-0.35 16.55 0 17.5 0L17.5 0ZM14.1-20.7L14.1-31.5 14.6-31.5 14.6-20.7Q14.6-19.4 14.8-18.23 15-17.05 15.4-16.05L15.4-16.05 18.7-8.05Q19.2-6.75 19.83-5.88 20.45-5 21.85-5L21.85-5 26.25-5Q27.65-5 28.28-5.88 28.9-6.75 29.4-8.05L29.4-8.05 32.7-16.05Q33.1-17.05 33.3-18.23 33.5-19.4 33.5-20.7L33.5-20.7 33.5-31.5 34-31.5 34-20.7Q34-19.3 33.83-18.13 33.65-16.95 33.2-15.85L33.2-15.85 29.9-7.85Q29.3-6.4 28.55-5.45 27.8-4.5 26.25-4.5L26.25-4.5 21.85-4.5Q20.3-4.5 19.55-5.45 18.8-6.4 18.2-7.85L18.2-7.85 14.9-15.85Q14.45-16.95 14.28-18.13 14.1-19.3 14.1-20.7L14.1-20.7ZM56.65-17.7L56.65-4.5 56.15-4.5 56.15-31.5 56.65-31.5 56.65-18.2 67.5-18.2 73.25-31.5 73.8-31.5 68.05-18.2 70.1-18.2Q73.15-18.2 74.65-17.05 76.15-15.9 76.15-13.3L76.15-13.3 76.15-4.5 75.65-4.5 75.65-13.3Q75.65-15.7 74.25-16.7 72.85-17.7 70.1-17.7L70.1-17.7 56.65-17.7ZM52.5 0L60.25 0Q61.2 0 61.62-0.43 62.05-0.85 62.05-1.8L62.05-1.8 62.05-13.25 68.65-13.25Q69.45-13.25 69.85-12.8 70.25-12.35 70.25-11.55L70.25-11.55 70.25-1.8Q70.25-0.85 70.67-0.43 71.1 0 72.05 0L72.05 0 79.75 0Q80.7 0 81.12-0.43 81.55-0.85 81.55-1.8L81.55-1.8 81.55-15.9Q81.55-18.9 79.87-20.73 78.2-22.55 75.4-22.7L75.4-22.7 80.5-34.35Q80.85-35.15 80.55-35.58 80.25-36 79.4-36L79.4-36 71.7-36Q70.75-36 70.15-35.63 69.55-35.25 69.2-34.35L69.2-34.35 64.05-22.7 62.05-22.7 62.05-34.2Q62.05-35.15 61.62-35.58 61.2-36 60.25-36L60.25-36 52.5-36Q51.55-36 51.12-35.58 50.7-35.15 50.7-34.2L50.7-34.2 50.7-1.8Q50.7-0.85 51.12-0.43 51.55 0 52.5 0L52.5 0ZM61.85 0.05L61.85 0.05 55.35 5.45Q55.15 5.65 54.72 5.8 54.3 5.95 53.8 5.95L53.8 5.95 46.05 5.95Q44.85 5.95 44.3 5.4 43.75 4.85 43.75 3.65L43.75 3.65 43.75-28.75Q43.75-29.4 43.92-29.85 44.1-30.3 44.45-30.6L44.45-30.6 50.9-36.05Q51.15-36.25 51.57-36.38 52-36.5 52.5-36.5L52.5-36.5 60.25-36.5Q61.45-36.5 62-35.95 62.55-35.4 62.55-34.2L62.55-34.2 62.55-29.65Q62.7-29.85 62.85-30.08 63-30.3 63.2-30.45L63.2-30.45 69.65-35.9Q70-36.2 70.52-36.35 71.05-36.5 71.7-36.5L71.7-36.5 79.4-36.5Q80.65-36.5 81.05-35.88 81.45-35.25 80.95-34.15L80.95-34.15 76.15-23.15Q78.85-22.8 80.45-20.85 82.05-18.9 82.05-15.9L82.05-15.9 82.05-1.8Q82.05-1.15 81.87-0.7 81.7-0.25 81.35 0.05L81.35 0.05 74.85 5.45Q74.65 5.65 74.22 5.8 73.8 5.95 73.3 5.95L73.3 5.95 65.6 5.95Q64.4 5.95 63.85 5.4 63.3 4.85 63.3 3.65L63.3 3.65 63.3-6.1Q63.3-6.6 63.1-6.9 62.9-7.2 62.55-7.25L62.55-7.25 62.55-1.8Q62.55-1.15 62.37-0.7 62.2-0.25 61.85 0.05Z" opacity="1" transform="matrix(1,0,0,1,0,0)" fill="#c10000" class="undefined-text-0" data-fill-palette-color="primary" id="text-0"></path>
                                                                                </svg>
                                                                            </g>
                                                                        </svg>
                                                                    </g>
                                                                </svg>
                                                            </g>
                                                        </svg>
                                                    </g>
                                                    <g></g>
                                                </svg>
                                            </g>
                                        </svg>
                                    </g>
                                </svg>
                            </g>
                        </svg>
                    </g>
                    <defs></defs>
                </svg>
                <rect width="320" height="360" fill="none" stroke="none" visibility="hidden"></rect>
            </g>
        </svg>
    </g>
</svg>